<?xml version="1.0" encoding="UTF-8"?> <svg xmlns="http://www.w3.org/2000/svg" xmlns:svg="http://www.w3.org/2000/svg" xmlns:xlink="http://www.w3.org/1999/xlink" width="700" height="700"> <defs> <symbol id="r"> <path d="m3.6562,-0.21875c-0.1875,0.09375 -0.38672,0.16797 -0.59375,0.21875c-0.19922,0.050781 -0.40625,0.078125 -0.625,0.078125c-0.66797,0 -1.1992,-0.17969 -1.5938,-0.54688c-0.38672,-0.375 -0.57812,-0.87891 -0.57812,-1.5156c0,-0.64453 0.19141,-1.1484 0.57812,-1.5156c0.39453,-0.375 0.92578,-0.5625 1.5938,-0.5625c0.21875,0 0.42578,0.027344 0.625,0.078125c0.20703,0.054687 0.40625,0.125 0.59375,0.21875l0,0.82812c-0.1875,-0.125 -0.375,-0.21875 -0.5625,-0.28125c-0.17969,-0.0625 -0.37109,-0.09375 -0.57812,-0.09375c-0.36719,0 -0.65625,0.12109 -0.875,0.35938c-0.21094,0.23047 -0.3125,0.55469 -0.3125,0.96875c0,0.40625 0.10156,0.73047 0.3125,0.96875c0.21875,0.23047 0.50781,0.34375 0.875,0.34375c0.20703,0 0.39844,-0.023437 0.57812,-0.078125c0.1875,-0.0625 0.375,-0.16016 0.5625,-0.29688l0,0.828085z" id="svg_1"></path> </symbol> <symbol id="b"> <path d="m2.6875,-2.1719c-0.085938,-0.039063 -0.16797,-0.070313 -0.25,-0.09375c-0.085938,-0.019531 -0.16797,-0.03125 -0.25,-0.03125c-0.25,0 -0.44531,0.085937 -0.57812,0.25c-0.125,0.15625 -0.1875,0.38281 -0.1875,0.67188l0,1.375l-0.96875,0l0,-2.9844l0.96875,0l0,0.48438c0.11328,-0.19531 0.25,-0.33594 0.40625,-0.42188c0.16406,-0.09375 0.35938,-0.14062 0.57812,-0.14062l0.10938,0c0.039063,0 0.09375,0.007812 0.15625,0.015625l0.01562,0.875015z" id="svg_2"></path> </symbol> <symbol id="a"> <path d="m3.4375,-1.5l0,0.26562l-2.2344,0c0.03125,0.23047 0.11328,0.40234 0.25,0.51562c0.13281,0.10547 0.32812,0.15625 0.57812,0.15625c0.20703,0 0.41406,-0.023438 0.625,-0.078125c0.20703,-0.0625 0.42188,-0.15625 0.64062,-0.28125l0,0.73438c-0.21875,0.09375 -0.44531,0.16406 -0.67188,0.20312c-0.23047,0.039062 -0.45312,0.0625 -0.67188,0.0625c-0.54297,0 -0.96484,-0.13281 -1.2656,-0.40625c-0.30469,-0.28125 -0.45312,-0.67188 -0.45312,-1.1719c0,-0.47656 0.14453,-0.85938 0.4375,-1.1406c0.30078,-0.28125 0.70703,-0.42188 1.2188,-0.42188c0.46875,0 0.84375,0.14062 1.125,0.42188s0.42188,0.66406 0.42188,1.1406l-0.00004,0.000035zm-0.96875,-0.32812c0,-0.17578 -0.058594,-0.31641 -0.17188,-0.42188c-0.10547,-0.11328 -0.24219,-0.17188 -0.40625,-0.17188c-0.1875,0 -0.33984,0.054687 -0.45312,0.15625c-0.11719,0.10547 -0.1875,0.25 -0.21875,0.4375l1.25,0.00001z" id="svg_3"></path> </symbol> <symbol id="j"> <path d="m1.7969,-1.3438c-0.19922,0 -0.35156,0.039062 -0.45312,0.10938c-0.09375,0.0625 -0.14062,0.16406 -0.14062,0.29688c0,0.11719 0.035156,0.21094 0.10938,0.28125c0.082031,0.0625 0.19531,0.09375 0.34375,0.09375c0.17578,0 0.32812,-0.0625 0.45312,-0.1875s0.1875,-0.28516 0.1875,-0.48438l0,-0.10938l-0.50001,0zm1.4688,-0.35938l0,1.7031l-0.96875,0l0,-0.4375c-0.125,0.17969 -0.27344,0.30859 -0.4375,0.39062c-0.15625,0.082031 -0.35156,0.125 -0.57812,0.125c-0.3125,0 -0.57031,-0.085938 -0.76562,-0.26562c-0.1875,-0.1875 -0.28125,-0.42188 -0.28125,-0.70312c0,-0.35156 0.11719,-0.61328 0.35938,-0.78125c0.23828,-0.16406 0.61719,-0.25 1.1406,-0.25l0.5625,0l0,-0.0625c0,-0.15625 -0.0625,-0.26562 -0.1875,-0.32812c-0.11719,-0.070312 -0.29688,-0.10938 -0.54688,-0.10938c-0.21094,0 -0.40234,0.023437 -0.57812,0.0625c-0.17969,0.042969 -0.33984,0.10156 -0.48438,0.17188l0,-0.71875c0.19531,-0.050781 0.39844,-0.085938 0.60938,-0.10938c0.20703,-0.03125 0.41406,-0.046875 0.625,-0.046875c0.53906,0 0.92969,0.10938 1.1719,0.32812c0.23828,0.21094 0.35938,0.55469 0.35938,1.0312l-0.00002,0.000075z" id="svg_4"></path> </symbol> <symbol id="d"> <path d="m1.5,-3.8438l0,0.85938l0.98438,0l0,0.67188l-0.98438,0l0,1.2812c0,0.13672 0.023438,0.23047 0.078125,0.28125c0.0625,0.042969 0.17578,0.0625 0.34375,0.0625l0.48438,0l0,0.6875l-0.8125,0c-0.38672,0 -0.65625,-0.078125 -0.8125,-0.23438s-0.23438,-0.42188 -0.23438,-0.79688l0,-1.2812l-0.46875,0l0,-0.67188l0.46875,0l0,-0.85938l0.953125,0.00001z" id="svg_5"></path> </symbol> <symbol id="i"> <path d="m2.5,-2.5469l0,-1.6094l0.95312,0l0,4.1562l-0.95312,0l0,-0.4375c-0.13672,0.17969 -0.28125,0.30859 -0.4375,0.39062c-0.15625,0.082031 -0.33984,0.125 -0.54688,0.125c-0.375,0 -0.68359,-0.14453 -0.92188,-0.4375c-0.23047,-0.28906 -0.34375,-0.67188 -0.34375,-1.1406c0,-0.45703 0.11328,-0.83203 0.34375,-1.125c0.23828,-0.28906 0.54688,-0.4375 0.92188,-0.4375c0.19531,0 0.375,0.042969 0.53125,0.125c0.16406,0.085938 0.31641,0.21484 0.45312,0.39062l0.00001,0.00006zm-0.64062,1.9375c0.20703,0 0.36328,-0.070313 0.46875,-0.21875c0.11328,-0.15625 0.17188,-0.37891 0.17188,-0.67188c0,-0.28125 -0.058594,-0.49219 -0.17188,-0.64062c-0.10547,-0.15625 -0.26172,-0.23438 -0.46875,-0.23438c-0.19922,0 -0.35547,0.078125 -0.46875,0.23438c-0.10547,0.14844 -0.15625,0.35938 -0.15625,0.64062c0,0.29297 0.050781,0.51562 0.15625,0.67188c0.11328,0.14844 0.26953,0.21875 0.46875,0.21875z" id="svg_6"></path> </symbol> <symbol id="h"> <path d="m2.0469,-0.60938c0.20703,0 0.36328,-0.070313 0.46875,-0.21875c0.11328,-0.15625 0.17188,-0.37891 0.17188,-0.67188c0,-0.28125 -0.058594,-0.49219 -0.17188,-0.64062c-0.10547,-0.15625 -0.26172,-0.23438 -0.46875,-0.23438c-0.19922,0 -0.35547,0.078125 -0.46875,0.23438c-0.10547,0.14844 -0.15625,0.35938 -0.15625,0.64062c0,0.29297 0.050781,0.51562 0.15625,0.67188c0.11328,0.14844 0.26953,0.21875 0.46875,0.21875zm-0.625,-1.9375c0.125,-0.17578 0.26562,-0.30469 0.42188,-0.39062c0.16406,-0.082031 0.35156,-0.125 0.5625,-0.125c0.36328,0 0.66406,0.14844 0.90625,0.4375c0.23828,0.29297 0.35938,0.66797 0.35938,1.125c0,0.46875 -0.12109,0.85156 -0.35938,1.1406c-0.24219,0.29297 -0.54297,0.4375 -0.90625,0.4375c-0.21094,0 -0.39844,-0.042969 -0.5625,-0.125c-0.15625,-0.082031 -0.29688,-0.21094 -0.42188,-0.39062l0,0.4375l-0.96875,0l0,-4.1562l0.96875,0l0,1.60934z" id="svg_7"></path> </symbol> <symbol id="g"> <path d="m0.0625,-2.9844l0.95312,0l0.8125,2.0156l0.6875,-2.0156l0.95312,0l-1.2656,3.2656c-0.125,0.33203 -0.27344,0.56641 -0.4375,0.70312c-0.16797,0.13281 -0.39062,0.20312 -0.67188,0.20312l-0.54688,0l0,-0.64062l0.29688,0c0.16406,0 0.28516,-0.027344 0.35938,-0.078125c0.070313,-0.054688 0.12891,-0.14062 0.17188,-0.26562l0.03125,-0.09375l-1.34377,-3.093725z" id="svg_8"></path> </symbol> <symbol id="e"> <path d="m0.5,-3.9844l1.1562,0l1.4375,2.7344l0,-2.7344l0.98438,0l0,3.9844l-1.1562,0l-1.4375,-2.7344l0,2.7344l-0.98438,0l0,-3.9844z" id="svg_9"></path> </symbol> <symbol id="f"> <path d="m3.4688,-1.8281l0,1.8281l-0.96875,0l0,-1.3906c0,-0.25781 -0.007812,-0.4375 -0.015625,-0.53125c-0.011719,-0.10156 -0.03125,-0.17578 -0.0625,-0.21875c-0.03125,-0.0625 -0.085937,-0.10938 -0.15625,-0.14062c-0.0625,-0.039062 -0.13281,-0.0625 -0.20312,-0.0625c-0.21094,0 -0.37109,0.078125 -0.48438,0.23438c-0.10547,0.15625 -0.15625,0.37109 -0.15625,0.64062l0,1.4688l-0.96875,0l0,-4.1562l0.96875,0l0,1.6094c0.13281,-0.17578 0.28516,-0.30469 0.45312,-0.39062c0.16406,-0.082031 0.34375,-0.125 0.53125,-0.125c0.34375,0 0.60156,0.10938 0.78125,0.32812c0.1875,0.21094 0.28125,0.51172 0.28125,0.90625l0.000005,-0.00013z" id="svg_10"></path> </symbol> <symbol id="c"> <path d="m1.875,-2.375c-0.21094,0 -0.37109,0.078125 -0.48438,0.23438c-0.10547,0.14844 -0.15625,0.35938 -0.15625,0.64062c0,0.29297 0.050781,0.51562 0.15625,0.67188c0.11328,0.14844 0.27344,0.21875 0.48438,0.21875c0.20703,0 0.36719,-0.070313 0.48438,-0.21875c0.11328,-0.15625 0.17188,-0.37891 0.17188,-0.67188c0,-0.28125 -0.058594,-0.49219 -0.17188,-0.64062c-0.11719,-0.15625 -0.27734,-0.23438 -0.48438,-0.23438zm0,-0.6875c0.51953,0 0.92188,0.14062 1.2031,0.42188c0.28906,0.27344 0.4375,0.65234 0.4375,1.1406c0,0.5 -0.14844,0.89062 -0.4375,1.1719c-0.28125,0.27344 -0.68359,0.40625 -1.2031,0.40625c-0.51172,0 -0.91406,-0.13281 -1.2031,-0.40625c-0.29297,-0.28125 -0.4375,-0.67188 -0.4375,-1.1719c0,-0.48828 0.14453,-0.86719 0.4375,-1.1406c0.28906,-0.28125 0.69141,-0.42188 1.2031,-0.42188z" id="svg_11"></path> </symbol> <symbol id="q"> <path d="m2.4219,-4.1562l0,0.625l-0.51562,0c-0.13672,0 -0.23438,0.027344 -0.29688,0.078125c-0.054687,0.054687 -0.078125,0.13672 -0.078125,0.25l0,0.21875l0.82812,0l0,0.67188l-0.82812,0l0,2.3125l-0.95312,0l0,-2.3125l-0.46875,0l0,-0.67188l0.46875,0l0,-0.21875c0,-0.32031 0.085937,-0.5625 0.26562,-0.71875c0.1875,-0.15625 0.47266,-0.23438 0.85938,-0.23438l0.718745,0.000005z" id="svg_12"></path> </symbol> <symbol id="p"> <path d="m3.2344,-2.5c0.11328,-0.17578 0.25391,-0.3125 0.42188,-0.40625c0.16406,-0.10156 0.35156,-0.15625 0.5625,-0.15625c0.33203,0 0.58594,0.10938 0.76562,0.32812c0.1875,0.21094 0.28125,0.51172 0.28125,0.90625l0,1.8281l-0.96875,0l0,-1.5625c0.007813,-0.019531 0.015625,-0.039062 0.015625,-0.0625l0,-0.10938c0,-0.21875 -0.03125,-0.375 -0.09375,-0.46875s-0.16406,-0.14062 -0.29688,-0.14062c-0.1875,0 -0.33594,0.078125 -0.4375,0.23438c-0.09375,0.14844 -0.14062,0.35938 -0.14062,0.64062l0,1.4688l-0.96875,0l0,-1.5625c0,-0.33203 -0.03125,-0.54688 -0.09375,-0.64062c-0.054688,-0.09375 -0.15234,-0.14062 -0.29688,-0.14062c-0.17969,0 -0.32031,0.078125 -0.42188,0.23438c-0.09375,0.14844 -0.14062,0.35938 -0.14062,0.64062l0,1.4688l-0.96875,0l0,-2.9844l0.96875,0l0,0.4375c0.11328,-0.17578 0.24219,-0.30469 0.39062,-0.39062c0.15625,-0.082031 0.32812,-0.125 0.51562,-0.125c0.20703,0 0.39062,0.054688 0.54688,0.15625c0.15625,0.09375 0.27344,0.23047 0.35938,0.40625l0.000005,-0.00006z" id="svg_13"></path> </symbol> <symbol id="o"> <path d="m0.42188,-1.1719l0,-1.8125l0.96875,0l0,0.29688l0,0.60938l0,0.48438c0,0.24219 0.003906,0.41797 0.015625,0.53125c0.007812,0.10547 0.03125,0.17969 0.0625,0.21875c0.039062,0.0625 0.09375,0.11719 0.15625,0.15625c0.0625,0.03125 0.13281,0.046875 0.21875,0.046875c0.19531,0 0.35156,-0.078125 0.46875,-0.23438c0.11328,-0.15625 0.17188,-0.36719 0.17188,-0.64062l0,-1.4688l0.95312,0l0,2.9844l-0.95312,0l0,-0.4375c-0.14844,0.17969 -0.30469,0.30859 -0.46875,0.39062c-0.15625,0.082031 -0.33594,0.125 -0.53125,0.125c-0.34375,0 -0.60938,-0.10156 -0.79688,-0.3125c-0.17969,-0.21875 -0.26562,-0.53125 -0.26562,-0.9375l-0.000005,0.000015z" id="svg_14"></path> </symbol> <symbol id="n"> <path d="m3.4688,-1.8281l0,1.8281l-0.96875,0l0,-1.3906c0,-0.25781 -0.007812,-0.4375 -0.015625,-0.53125c-0.011719,-0.10156 -0.03125,-0.17578 -0.0625,-0.21875c-0.03125,-0.0625 -0.085937,-0.10938 -0.15625,-0.14062c-0.0625,-0.039062 -0.13281,-0.0625 -0.20312,-0.0625c-0.21094,0 -0.37109,0.078125 -0.48438,0.23438c-0.10547,0.15625 -0.15625,0.37109 -0.15625,0.64062l0,1.4688l-0.96875,0l0,-2.9844l0.96875,0l0,0.4375c0.13281,-0.17578 0.28516,-0.30469 0.45312,-0.39062c0.16406,-0.082031 0.34375,-0.125 0.53125,-0.125c0.34375,0 0.60156,0.10938 0.78125,0.32812c0.1875,0.21094 0.28125,0.51172 0.28125,0.90625l0.000005,-0.00003z" id="svg_15"></path> </symbol> <symbol id="m"> <path d="m0.5,-3.9844l1.7031,0c0.50781,0 0.89844,0.11719 1.1719,0.34375c0.26953,0.21875 0.40625,0.53906 0.40625,0.95312c0,0.41797 -0.13672,0.74219 -0.40625,0.96875c-0.27344,0.21875 -0.66406,0.32812 -1.1719,0.32812l-0.67188,0l0,1.3906l-1.0312,0l-0.00002,-3.98434zm1.0312,0.75l0,1.1094l0.5625,0c0.19531,0 0.34766,-0.046875 0.45312,-0.14062c0.11328,-0.10156 0.17188,-0.24219 0.17188,-0.42188c0,-0.17578 -0.058594,-0.3125 -0.17188,-0.40625c-0.10547,-0.09375 -0.25781,-0.14062 -0.45312,-0.14062l-0.5625,-0.00003z" id="svg_16"></path> </symbol> <symbol id="l"> <path d="m0.45312,-2.9844l0.96875,0l0,2.9375c0,0.39453 -0.10156,0.69531 -0.29688,0.90625c-0.1875,0.21875 -0.46484,0.32812 -0.82812,0.32812l-0.48438,0l0,-0.64062l0.17188,0c0.17578,0 0.29688,-0.042969 0.35938,-0.125c0.070312,-0.074219 0.10938,-0.23047 0.10938,-0.46875l-0.00001,-2.9375zm0,-1.1719l0.96875,0l0,0.78125l-0.96875,0l0,-0.78125z" id="svg_17"></path> </symbol> <symbol id="k"> <path d="m2.875,-2.8906l0,0.76562c-0.125,-0.082031 -0.25781,-0.14453 -0.39062,-0.1875c-0.13672,-0.039062 -0.27344,-0.0625 -0.40625,-0.0625c-0.27344,0 -0.48047,0.078125 -0.625,0.23438c-0.14844,0.15625 -0.21875,0.37109 -0.21875,0.64062c0,0.28125 0.070313,0.5 0.21875,0.65625c0.14453,0.15625 0.35156,0.23438 0.625,0.23438c0.14453,0 0.28516,-0.019531 0.42188,-0.0625c0.13281,-0.039063 0.25781,-0.10938 0.375,-0.20312l0,0.78125c-0.14844,0.0625 -0.29688,0.10156 -0.45312,0.125c-0.15625,0.03125 -0.3125,0.046875 -0.46875,0.046875c-0.54297,0 -0.96484,-0.13281 -1.2656,-0.40625c-0.30469,-0.28125 -0.45312,-0.67188 -0.45312,-1.1719c0,-0.48828 0.14844,-0.86719 0.45312,-1.1406c0.30078,-0.28125 0.72266,-0.42188 1.2656,-0.42188c0.15625,0 0.3125,0.015625 0.46875,0.046875c0.15625,0.023437 0.30469,0.0625 0.45312,0.125l-0.00001,0z" id="svg_18"></path> </symbol> </defs> <g class="layer"> <title>Layer 1</title> <g id="svg_19"> <path d="m323.72161,245.187332l0,34.641935l21.609496,0l0,-34.641935c0,-3.062083 1.138364,-6.000511 3.164248,-8.165599l18.445866,-19.71357l0,-68.913036l-64.828489,34.641935l0,34.271101l18.445866,19.71357c2.025859,2.165088 3.164248,5.103516 3.164248,8.165599l-0.001235,0z" fill="#ffd014" id="svg_20"></path> <path d="m310.422508,395.302384l48.196586,0l-1.104591,-46.189247l-45.982539,0l-1.109456,46.189247z" fill="#ffd014" id="svg_21"></path> <path d="m145.585269,119.644959l31.604197,181.642512c4.910418,28.229548 9.063393,58.339658 12.965698,94.017552l51.419488,0c-9.565104,-39.101177 -16.588684,-71.969445 -21.889803,-102.456987l-31.604197,-181.642512l-42.495384,8.439435z" fill="#ffd014" id="svg_22"></path> <path d="m312.6452,302.92389l-0.55471,23.094623l44.873663,0l-0.55471,-23.094623l-43.764244,0z" fill="#ffd014" id="svg_23"></path> <path d="m366.940603,90.659228l-64.828489,34.641935l0,31.920729l64.828489,-34.641935l0,-31.920729z" fill="#ffd014" id="svg_24"></path> <path d="m667.930018,32.181002l-64.046843,-10.701916l-5.006859,34.224912l21.348948,3.567262l-3.337865,22.821447l-21.348948,-3.567262l-5.006859,34.224912l21.348948,3.567262l-3.337865,22.816168l-21.348948,-3.567262l-5.006859,34.224912l21.348948,3.567262l-3.337865,22.821447l-21.348948,-3.567262l-5.006859,34.224912l21.348948,3.567262l-3.337865,22.816168l-21.348948,-3.562115l-5.006859,34.224912l21.348948,3.567262l-3.337865,22.816168l-21.348948,-3.567262l-5.006859,34.224912l21.348948,3.567262l-3.337865,22.821447l-21.348948,-3.567262l-4.616159,31.559133l65.615075,0l53.116266,-363.124681z" fill="#ffd014" id="svg_25"></path> <path d="m475.17331,345.206846l-45.418222,-7.665567l-9.96062,57.757673l49.205441,0l6.173401,-50.092106z" fill="#ffd014" id="svg_26"></path> <path d="m459.441596,93.633815c1.678626,2.489864 4.220643,4.149774 7.051981,4.618925l42.688017,7.201563l0,0.005155c5.889514,0.98977 11.412531,-3.299232 12.358162,-9.58836l1.688257,-11.423524l-64.036964,-10.804984l-1.683442,11.402937c-0.453417,3.026056 0.241174,6.119019 1.934235,8.588297l-0.000247,-0.000008z" fill="#ffd014" id="svg_27"></path> <path d="m480.816475,299.400311l-43.228872,-7.294338l-3.916752,22.718511l44.324164,7.480019l2.821459,-22.904192z" fill="#ffd014" id="svg_28"></path> <path d="m456.947243,236.926055l-5.05514,34.219633l21.339069,3.608568l5.05514,-34.219633l0.004823,0c0.448588,-3.026056 2.00178,-5.737628 4.321899,-7.536633l21.098278,-16.398502l13.071893,-88.481441l-0.004823,0c-1.939051,0.38663 -3.911936,0.582526 -5.884698,0.587672c-1.697889,-0.005155 -3.395778,-0.149495 -5.074404,-0.433018l-42.688017,-7.201563l0,-0.005156c-3.63694,-0.618606 -7.148545,-1.897058 -10.380214,-3.783823l-13.076832,88.501236l15.343977,22.548271l-0.004824,0c1.688257,2.474424 2.382848,5.56752 1.934235,8.593443l-0.000362,0.000946z" fill="#ffd014" id="svg_29"></path> <path d="m214.834444,82.396631l82.589026,-37.580891l-4.731862,-27.197548l-89.707811,-3.340406l-168.801038,33.543951l11.851512,68.118581l168.800174,-33.543687z" fill="#ffd014" id="svg_30"></path> <path d="m551.016468,510.7755l0,-46.189247l-64.828489,0l0,46.189247l21.609496,0l0,-23.094623l21.609496,0l0,23.094623l21.609496,0z" fill="#ffd014" id="svg_31"></path> <path d="m501.820906,636.568614c-1.50007,0.804194 -3.154616,1.221745 -4.833242,1.221745l-21.609496,0c-1.678626,0 -3.333049,-0.417564 -4.833242,-1.221745l-19.327534,-10.32554l-19.058341,0l0,46.189247l19.058341,0l19.327534,-10.32554c1.50007,-0.804194 3.154616,-1.221745 4.833242,-1.221745l21.609496,0c1.678626,0 3.333049,0.417564 4.833242,1.221745l19.327534,10.32554l73.082082,0l0,-46.189247l-73.082082,0l-19.327534,10.32554z" fill="#ffd014" id="svg_32"></path> <path d="m626.649706,626.248617l-10.804748,0l0,46.189247l10.804748,0c7.722493,0 14.85622,-4.402363 18.715059,-11.547312s3.858839,-15.949807 0,-23.094623s-10.992813,-11.547312 -18.715059,-11.547312z" fill="#ffd014" id="svg_33"></path> <path d="m205.264524,510.7755l0,-46.189247l-64.828489,0l0,46.189247l21.609496,0l0,-23.094623l21.609496,0l0,23.094623l21.609496,0z" fill="#ffd014" id="svg_34"></path> <path d="m43.193301,418.397007l605.065901,0l0,23.094623l-605.065901,0l0,-23.094623z" fill="#ffd014" id="svg_35"></path> <path d="m83.263481,280.819036l21.247692,-4.206521l3.936015,22.707953l-21.247692,4.206521l-3.936015,-22.707953z" fill="#ffd014" id="svg_36"></path> <path d="m458.601913,604.381308l19.327534,10.32554l16.505951,0l19.327534,-10.32554c1.50007,-0.804194 3.154616,-1.221745 4.833242,-1.221745l108.047482,0l0,-138.56774l-54.023741,0l0,57.736558c0,3.062083 -1.138364,6.000511 -3.164248,8.165599s-4.775328,3.381713 -7.640501,3.381713l-32.414245,0l0,23.094623l-21.609496,0l0,-23.094623l-32.414245,0c-5.966691,0 -10.804748,-5.170556 -10.804748,-11.547312l0,-57.736558l-32.414245,0l0,115.473117l-21.609496,0l0,-115.473117l-129.656979,0l0,127.020428l-21.609496,0l0,-127.020428l-32.414245,0l0,57.736558c0,3.062083 -1.138364,6.000511 -3.164248,8.165599s-4.775328,3.381713 -7.640501,3.381713l-32.414245,0l0,23.094623l-21.609496,0l0,-23.094623l-32.414245,0c-5.966691,0 -10.804748,-5.170556 -10.804748,-11.547312l0,-57.736558l-54.023741,0l0,184.756987c0.004823,6.124166 2.286408,11.990596 6.338127,16.32064s9.541025,6.768572 15.271122,6.773719l103.57123,0l-13.968379,-14.928365c-2.025859,-2.165088 -3.164248,-5.103516 -3.164248,-8.165599s1.138364,-6.000511 3.164248,-8.165599l21.609496,-23.094623c2.025859,-2.165088 4.775328,-3.381713 7.640501,-3.381713l205.290217,0c0,-6.376755 4.838058,-11.547312 10.804748,-11.547312l32.414245,0c1.678626,0 3.333049,0.417564 4.833242,1.221745l0.000617,-0.000396z" fill="#ffd014" id="svg_37"></path> <path d="m92.141897,223.781915c-3.598413,-2.644532 -8.339907,-2.711573 -12.005866,-0.170122c-3.665958,2.541464 -5.537464,7.196417 -4.741494,11.789607l3.936015,22.707953l21.247692,-4.206521l-3.936015,-22.707953c-0.511293,-3.010483 -2.132055,-5.680881 -4.500332,-7.412978l0,0.000013z" fill="#ffd014" id="svg_38"></path> <path d="m125.07477,395.302384l-12.69527,-73.273301l-21.247692,4.201374l11.967216,69.072719l21.975747,-0.000792z" fill="#ffd014" id="svg_39"></path> <path d="m198.929855,649.34324l10.804748,11.547312l200.80779,0l0,-23.094623l-200.80779,0l-10.804748,11.547312z" fill="#ffd014" id="svg_40"></path> <use fill="#ffd014" id="svg_41" transform="matrix(1.23483 0 0 1.31969 -85.8044 3.1341)" x="69.466125" xlink:href="#r" y="558.572603"></use> <use fill="#ffd014" id="svg_42" transform="matrix(1.23483 0 0 1.31969 -85.8044 3.1341)" x="73.477844" xlink:href="#b" y="558.572603"></use> <use fill="#ffd014" id="svg_43" transform="matrix(1.23483 0 0 1.31969 -85.8044 3.1341)" x="76.177063" xlink:href="#a" y="558.572603"></use> <use fill="#ffd014" id="svg_44" transform="matrix(1.23483 0 0 1.31969 -85.8044 3.1341)" x="79.884094" xlink:href="#j" y="558.572603"></use> <use fill="#ffd014" id="svg_45" transform="matrix(1.23483 0 0 1.31969 -85.8044 3.1341)" x="83.5755" xlink:href="#d" y="558.572603"></use> <use fill="#ffd014" id="svg_46" transform="matrix(1.23483 0 0 1.31969 -85.8044 3.1341)" x="86.188781" xlink:href="#a" y="558.572603"></use> <use fill="#ffd014" id="svg_47" transform="matrix(1.23483 0 0 1.31969 -85.8044 3.1341)" x="89.899719" xlink:href="#i" y="558.572603"></use> <use fill="#ffd014" id="svg_48" transform="matrix(1.23483 0 0 1.31969 -85.8044 3.1341)" x="95.716125" xlink:href="#h" y="558.572603"></use> <use fill="#ffd014" id="svg_49" transform="matrix(1.23483 0 0 1.31969 -85.8044 3.1341)" x="99.634094" xlink:href="#g" y="558.572603"></use> <use fill="#ffd014" id="svg_50" transform="matrix(1.23483 0 0 1.31969 -85.8044 3.1341)" x="105.102844" xlink:href="#e" y="558.572603"></use> <use fill="#ffd014" id="svg_51" transform="matrix(1.23483 0 0 1.31969 -85.8044 3.1341)" x="109.677063" xlink:href="#f" y="558.572603"></use> <use fill="#ffd014" id="svg_52" transform="matrix(1.23483 0 0 1.31969 -85.8044 3.1341)" x="113.571594" xlink:href="#c" y="558.572603"></use> <use fill="#ffd014" id="svg_53" transform="matrix(1.23483 0 0 1.31969 -85.8044 3.1341)" x="117.329406" xlink:href="#b" y="558.572603"></use> <use fill="#ffd014" id="svg_54" transform="matrix(1.23483 0 0 1.31969 -85.8044 3.1341)" x="69.466125" xlink:href="#q" y="564.041353"></use> <use fill="#ffd014" id="svg_55" transform="matrix(1.23483 0 0 1.31969 -85.8044 3.1341)" x="71.845031" xlink:href="#b" y="564.041353"></use> <use fill="#ffd014" id="svg_56" transform="matrix(1.23483 0 0 1.31969 -85.8044 3.1341)" x="74.54425" xlink:href="#c" y="564.041353"></use> <use fill="#ffd014" id="svg_57" transform="matrix(1.23483 0 0 1.31969 -85.8044 3.1341)" x="78.298156" xlink:href="#p" y="564.041353"></use> <use fill="#ffd014" id="svg_58" transform="matrix(1.23483 0 0 1.31969 -85.8044 3.1341)" x="85.903625" xlink:href="#d" y="564.041353"></use> <use fill="#ffd014" id="svg_59" transform="matrix(1.23483 0 0 1.31969 -85.8044 3.1341)" x="88.516906" xlink:href="#f" y="564.041353"></use> <use fill="#ffd014" id="svg_60" transform="matrix(1.23483 0 0 1.31969 -85.8044 3.1341)" x="92.407531" xlink:href="#a" y="564.041353"></use> <use fill="#ffd014" id="svg_61" transform="matrix(1.23483 0 0 1.31969 -85.8044 3.1341)" x="98.020813" xlink:href="#e" y="564.041353"></use> <use fill="#ffd014" id="svg_62" transform="matrix(1.23483 0 0 1.31969 -85.8044 3.1341)" x="102.598937" xlink:href="#c" y="564.041353"></use> <use fill="#ffd014" id="svg_63" transform="matrix(1.23483 0 0 1.31969 -85.8044 3.1341)" x="106.35675" xlink:href="#o" y="564.041353"></use> <use fill="#ffd014" id="svg_64" transform="matrix(1.23483 0 0 1.31969 -85.8044 3.1341)" x="110.251281" xlink:href="#n" y="564.041353"></use> <use fill="#ffd014" id="svg_65" transform="matrix(1.23483 0 0 1.31969 -85.8044 3.1341)" x="116.048156" xlink:href="#m" y="564.041353"></use> <use fill="#ffd014" id="svg_66" transform="matrix(1.23483 0 0 1.31969 -85.8044 3.1341)" x="120.055969" xlink:href="#b" y="564.041353"></use> <use fill="#ffd014" id="svg_67" transform="matrix(1.23483 0 0 1.31969 -85.8044 3.1341)" x="122.751281" xlink:href="#c" y="564.041353"></use> <use fill="#ffd014" id="svg_68" transform="matrix(1.23483 0 0 1.31969 -85.8044 3.1341)" x="126.509094" xlink:href="#l" y="564.041353"></use> <use fill="#ffd014" id="svg_69" transform="matrix(1.23483 0 0 1.31969 -85.8044 3.1341)" x="128.384094" xlink:href="#a" y="564.041353"></use> <use fill="#ffd014" id="svg_70" transform="matrix(1.23483 0 0 1.31969 -85.8044 3.1341)" x="132.091125" xlink:href="#k" y="564.041353"></use> <use fill="#ffd014" id="svg_71" transform="matrix(1.23483 0 0 1.31969 -85.8044 3.1341)" x="135.333313" xlink:href="#d" y="564.041353"></use> </g> </g> </svg> 