<?xml version="1.0" encoding="UTF-8"?>
<!DOCTYPE svg PUBLIC "-//W3C//DTD SVG 1.1//EN" "http://www.w3.org/Graphics/SVG/1.1/DTD/svg11.dtd">
<!-- Creator: CorelDRAW 2020 (64-Bit) -->
<svg xmlns="http://www.w3.org/2000/svg" xml:space="preserve" width="130.74mm" height="32.2966mm" version="1.1" style="shape-rendering:geometricPrecision; text-rendering:geometricPrecision; image-rendering:optimizeQuality; fill-rule:evenodd; clip-rule:evenodd"
viewBox="0 0 10674.09 2636.82"
 xmlns:xlink="http://www.w3.org/1999/xlink"
 xmlns:xodm="http://www.corel.com/coreldraw/odm/2003">
 <defs>
  <style type="text/css">
   <![CDATA[
    .fil2 {fill:#EDC84D}
    .fil3 {fill:white}
    .fil1 {fill:#EDC84D;fill-rule:nonzero}
    .fil0 {fill:white;fill-rule:nonzero}
   ]]>
  </style>
 </defs>
 <g id="Слой_x0020_1">
  <metadata id="CorelCorpID_0Corel-Layer"/>
  <g id="_2921621544112">
   <polygon class="fil0" points="-0,1926.81 295.02,1926.81 357.03,1235.51 662.6,1925.19 857.46,1926.81 1160.34,1237.12 1217.17,1926.81 1514.1,1926.81 1402.87,788.62 1033.42,788.62 765.69,1484.53 485.27,788.62 115.84,788.62 "/>
   <polygon class="fil0" points="1637.32,1926.5 2545.92,1926.5 2545.92,1683.96 1926.72,1683.96 1926.72,1481.51 2398.39,1481.51 2398.39,1246.82 1926.72,1246.82 1926.72,1031.32 2519.15,1032.94 2519.15,788.52 1637.32,788.52 "/>
   <path class="fil0" d="M2675.28 1934.25l295.01 0 0 -893.82 460.99 0 0 -244.43 -756.01 0c0,379.45 0,758.82 0,1138.25z"/>
   <path class="fil0" d="M3202.81 1926.81l334.52 0 79.32 -191.13 539.18 -1.62 79.33 192.74 326.7 0 -516.96 -1138.19 -306.16 0 -535.91 1138.19zm502.62 -438.51l174.61 -355.35 6.2 0 180.83 355.35 -361.65 0z"/>
   <path class="fil1" d="M5478.47 1556.09c-93.65,112.6 -138.04,147.47 -292.09,147.47 -259.84,0 -396.24,-201.34 -396.24,-361.6 0,-168.09 126.69,-364.56 402.73,-364.56 112.63,0 173,23.8 249.07,76.05l22.19 15.69 145.86 -166.46c-96.87,-109.36 -302.86,-169.68 -453.65,-158.64 -52.21,1.69 -103.12,8.16 -155.35,19.27 -356.76,77.7 -508.87,358.38 -508.87,580.28 0,260.12 221.96,593.08 689.7,593.08 196.46,0 347.23,-47.39 456.59,-220.36l-159.95 -160.2z"/>
   <polygon class="fil1" points="6112.36,1926.81 6407.37,1926.81 6407.37,1033.05 6802.28,1033.05 6802.28,788.62 5716.89,788.62 5716.89,1033.05 6112.36,1033.05 "/>
   <polygon class="fil1" points="9521.85,786.89 9805,786.89 9805,1451.09 10376.1,786.89 10674.09,786.89 10674.09,1925.07 10385.54,1926.67 10385.54,1200.71 9792.27,1920.16 9521.85,1920.16 "/>
   <path class="fil2" d="M8977.87 1863.86c55.55,-40.13 71.43,-48.01 107.08,-84.43 -148.16,66.38 -276.24,93.05 -373.94,94.25 98.27,-23.28 199.41,-52.46 238.02,-98.81 -270.67,63.41 -535.93,16.97 -694.04,-236.54 -94.61,-151.71 -123.34,-355.74 -67.48,-527.13 47.7,-146.37 130.34,-234.96 263.31,-306.74 50.75,-27.42 88.49,-43.78 144.07,-58.42 10.64,-2.82 19.37,-7.53 30.97,-9.49 24.17,-4.07 49.13,-6.65 73.63,-8.8 16.75,-1.44 67.45,2.51 78.18,-1.95 -20.39,-15.51 -104.33,-13.58 -132.22,-10.51 -41.43,4.56 -85.72,13.55 -125.49,25.51 -18.02,5.42 -35.08,14.2 -52.88,20.66 -51.84,18.79 -98.69,53.35 -146.37,78.79 -6.92,-14.57 105.44,-91.92 112.8,-97.21 34.86,-27.49 107.79,-55.75 148.62,-70.92 34.41,-12.84 104.85,-24.02 115.87,-29.07 -23.86,-8.6 -124.32,0.98 -151.36,8.49 -208,57.7 -353.34,172.42 -465.17,354.23 -156.14,253.87 -144.49,576.35 -6.35,839.1 80.32,152.8 244.47,289.97 406.95,342.16 277.97,89.37 536.78,22.69 744.4,-179.72 110.52,-107.71 182.93,-260.04 214.97,-409.53 35.77,-166.83 4.04,-487.47 -161.38,-679.66 35.75,64.68 211.59,315.86 68.82,683.44 -42.49,109.39 -226.28,325.12 -371.03,362.29z"/>
   <path class="fil3" d="M9117.87 922.62c29.97,28.46 89.05,180.77 61.39,222.12 -5.47,-17.15 -7.2,-41.6 -12.07,-60.28 -4.84,-18.47 -10.44,-36.76 -15.33,-55.06 -6.97,-25.95 -33.15,-93.94 -33.99,-106.78zm55.75 -48.41c30.93,20.78 76.25,135.22 68.03,185.17 -7.28,-9.02 -27.33,-75.39 -33.9,-93.11 -5.67,-15.11 -34.8,-82.04 -34.13,-92.05zm-220.66 449.68c12.43,0.36 28.95,-16.35 38.89,-23.88 15.49,-11.95 23.24,-21.36 27.38,-40.06 5.06,-23.35 6.97,-35.44 6.97,-59.9 -0.09,-14.38 -4.35,-55.45 -2.29,-65.14 15.09,19.19 21.64,77.01 22.62,104.56 0.51,14.97 -3.45,28.75 -1.55,41.97 18.35,-0.76 35.68,-20.33 44.97,-34.11 36.13,-53.7 0.26,-199.94 1.86,-206.09 14.4,20.26 26.2,62.99 32.62,88.4 10.8,42.9 14.03,129.27 9.87,176.46 -3.51,40.53 -21.53,110.43 -37.38,150.76 -16.68,42.62 -36.13,84.92 -63.14,122.27 -27.39,37.7 -55.79,67.94 -92.31,97.54 -22.6,18.42 -51.99,30.75 -78.44,46.66 6.87,4.57 10.98,1.62 19.36,-0.02l60.47 -16.26c25.11,-8.47 49.21,-19.8 73.61,-29.84l65.63 -35.55c21.4,-12.31 41.35,-26.66 60.51,-42.89 36.36,-30.79 72.34,-65.65 98.94,-105.78 24.57,-36.97 58.96,-91.51 69.74,-134.78l20.6 -80.97c18.7,-84.16 6.49,-194.21 -13.91,-275.88 -13.88,-55.4 -33.46,-99.9 -52.16,-153.17 -8.03,-22.73 -57.44,-118.96 -72.81,-134 -17.64,-9.27 -101.61,56.08 -122.8,71.83 -11.69,8.62 -29.44,18.33 -38.67,27.87 -22.39,23.26 -137.49,87.58 -149.73,111.8 -14.87,29.42 47.72,145.11 61.1,191.25 12.04,41.57 40.32,117.52 30.08,164.15 -2.91,13.18 -21.04,33.33 -20.02,42.81zm-280.99 -1129.67c-24.35,3.86 -38.53,-8.02 -49.61,-28.02 -31.46,-56.55 29.6,-73.38 50.77,-23.79 8.73,20.33 13.26,33.7 -1.16,51.81zm-70.19 -37.11c-9.11,-2.16 -17.09,-27.88 -18.11,-38.05 -5.95,-59.66 50.06,-67.15 82.97,-13.18 -13.91,-0.69 -35.88,-22.2 -56.12,-4.13 -17.46,15.71 -9.55,35.83 -8.74,55.36zm254.93 743.3c18.25,-3.76 196.03,-137.07 237.25,-164.68 14.4,-9.72 69.84,-45.97 76.75,-56.33 -1.67,-7.14 -19.55,-38.1 -25.04,-44.08 -55.44,-60.48 -107.31,24.17 -139.49,23.11 -5.37,-6.56 -18.21,-46.99 -21.31,-57.41 -6.48,-22.31 -59.63,-146.26 -69.63,-167.12 -17.29,-35.88 -33.53,-71.05 -51.75,-106.47l-87.14 -149.6c-43.55,-53.11 -134.26,-212.59 -216.65,-170.97 -11.05,5.53 -31.91,31.34 -34.59,43.28 -4.89,21.77 -1.98,52.39 4.53,73.52 23.44,76.3 61.23,147.6 99.52,216.21 64.15,115.07 178.86,260.6 267.42,364.36 25.12,29.33 13.59,22.86 -10.62,43.06 -32.51,27.06 -65.14,50.06 -54.95,97.23 3.91,18.33 14.77,41.83 25.7,55.9z"/>
   <path class="fil1" d="M6966.08 1926.81l289.31 0 0 -416.02 134.78 0c384.11,0 529.97,-134.82 529.97,-375.46 0,-243.56 -161.55,-346.7 -529.97,-346.7l-424.09 0 0 1138.19zm289.31 -666.43l0 -243.58c38.17,-1.62 76.08,-3.27 114.22,-3.27 135.07,0 225.48,25.48 225.48,117.22 0,107.45 -34.93,129.62 -193.77,129.62l-145.93 0z"/>
   <polygon class="fil1" points="9968.13,756.98 10164.87,756.98 10389.54,508.18 10076.51,508.18 "/>
   <path class="fil1" d="M1796.23 2634.75c-23.84,0 -45.28,-5.28 -64.43,-15.8 -19.13,-10.57 -34.15,-25.08 -45.03,-43.5 -10.89,-18.51 -16.31,-39.33 -16.31,-62.43 0,-23.13 5.42,-43.88 16.31,-62.39 10.88,-18.46 25.92,-32.97 45.19,-43.52 19.31,-10.53 40.81,-15.77 64.61,-15.77 18.57,0 35.59,3.11 51.04,9.33 15.37,6.24 28.5,15.44 39.39,27.7l-22.07 21.42c-17.95,-18.8 -40.26,-28.2 -67.03,-28.2 -17.64,0 -33.64,3.94 -47.92,11.87 -14.26,7.98 -25.42,18.88 -33.51,32.84 -8.04,13.9 -12.07,29.51 -12.07,46.72 0,17.26 4.03,32.81 12.07,46.75 8.09,13.95 19.24,24.9 33.51,32.79 14.29,8 30.28,11.91 47.92,11.91 26.55,0 48.9,-9.49 67.03,-28.5l22.07 21.37c-10.89,12.26 -24.07,21.53 -39.62,27.86 -15.5,6.38 -32.54,9.55 -51.14,9.55zm682.22 -240.71l0 237.98 -34.01 0 0 -106.06 -136.65 0 0 106.06 -34.01 0 0 -237.98 34.01 0 0 102.32 136.65 0 0 -102.32 34.01 0zm362.02 178.46l-126.47 0 -26.19 59.53 -34.98 0 107.76 -237.98 33.64 0 108.14 237.98 -35.73 0 -26.18 -59.53zm-11.89 -27.17l-51.3 -116.6 -51.37 116.6 102.67 0zm468.86 86.7l-0.35 -173.37 -86.01 144.49 -15.62 0 -86.05 -143.49 0 172.37 -32.64 0 0 -237.98 27.89 0 99.27 167.3 97.96 -167.3 27.84 0 0.38 237.98 -32.67 0zm239.98 -237.98l33.64 0 0 183.59 140.78 -183.59 31.3 0 0 237.98 -33.33 0 0 -183.24 -141.09 183.24 -31.3 0 0 -237.98zm767.91 114.6c16.11,3.86 28.31,10.64 36.55,20.57 8.29,9.82 12.4,22.44 12.4,37.88 0,20.62 -7.54,36.59 -22.57,47.97 -15.09,11.31 -36.99,16.96 -65.77,16.96l-108.85 0 0 -237.98 102.38 0c26.02,0 46.4,5.27 61.01,15.81 14.6,10.53 21.91,25.67 21.91,45.35 0,12.93 -3.22,23.93 -9.64,33.02 -6.47,9.04 -15.63,15.86 -27.42,20.42zm-114.58 -9.89l66.3 0c16.57,0 29.2,-3.29 37.92,-9.87 8.71,-6.55 13.06,-16.21 13.06,-28.9 0,-12.71 -4.42,-22.39 -13.22,-29.04 -8.87,-6.71 -21.46,-10.04 -37.77,-10.04l-66.3 0 0 77.86zm74.46 106.42c36.5,0 54.77,-13.59 54.77,-40.84 0,-13.59 -4.58,-23.57 -13.76,-30.04 -9.22,-6.47 -22.88,-9.73 -41.01,-9.73l-74.46 0 0 80.61 74.46 0zm385.55 29.57c-23.84,0 -45.3,-5.28 -64.43,-15.8 -19.13,-10.57 -34.15,-25.08 -45.03,-43.5 -10.89,-18.51 -16.31,-39.33 -16.31,-62.43 0,-23.13 5.42,-43.88 16.31,-62.39 10.88,-18.46 25.92,-32.97 45.19,-43.52 19.31,-10.53 40.79,-15.77 64.61,-15.77 18.55,0 35.59,3.11 51.01,9.33 15.42,6.24 28.53,15.44 39.39,27.7l-22.04 21.42c-17.95,-18.8 -40.26,-28.2 -67.03,-28.2 -17.64,0 -33.64,3.94 -47.9,11.87 -14.29,7.98 -25.44,18.88 -33.53,32.84 -8.04,13.9 -12.07,29.51 -12.07,46.72 0,17.26 4.03,32.81 12.07,46.75 8.09,13.95 19.24,24.9 33.53,32.79 14.26,8 30.26,11.91 47.9,11.91 26.55,0 48.88,-9.49 67.03,-28.5l22.04 21.37c-10.87,12.26 -24.06,21.53 -39.6,27.86 -15.5,6.38 -32.57,9.55 -51.14,9.55zm443.61 -32.28l0 29.56 -172.7 0 0 -237.98 167.95 0 0 29.57 -133.94 0 0 73.1 119.34 0 0 28.89 -119.34 0 0 76.88 138.69 0zm598.3 -208.43l0 237.98 -33.35 0 0 -208.41 -138.07 0 0 208.41 -33.64 0 0 -237.98 205.06 0zm314.41 240.71c-24.02,0 -45.66,-5.28 -64.92,-15.8 -19.28,-10.57 -34.4,-25.11 -45.39,-43.72 -11,-18.57 -16.51,-39.29 -16.51,-62.21 0,-22.88 5.51,-43.61 16.51,-62.24 11,-18.55 26.11,-33.12 45.39,-43.68 19.26,-10.53 40.9,-15.77 64.92,-15.77 23.82,0 45.34,5.24 64.61,15.77 19.26,10.56 34.35,25.06 45.23,43.52 10.87,18.51 16.34,39.26 16.34,62.39 0,23.11 -5.47,43.92 -16.34,62.43 -10.88,18.42 -25.97,32.93 -45.23,43.5 -19.27,10.52 -40.8,15.8 -64.61,15.8zm0 -30.28c17.46,0 33.12,-3.91 47.08,-11.91 13.96,-7.89 24.97,-18.84 33.02,-32.79 8.05,-13.94 12.07,-29.49 12.07,-46.75 0,-17.22 -4.02,-32.82 -12.07,-46.72 -8.04,-13.95 -19.06,-24.86 -33.02,-32.84 -13.95,-7.94 -29.61,-11.87 -47.08,-11.87 -17.44,0 -33.22,3.94 -47.42,11.87 -14.15,7.98 -25.26,18.88 -33.3,32.84 -8.07,13.9 -12.08,29.51 -12.08,46.72 0,17.26 4.02,32.81 12.08,46.75 8.04,13.95 19.15,24.9 33.3,32.79 14.2,8 29.98,11.91 47.42,11.91zm502.13 -210.43l0 237.98 -33.3 0 0 -208.41 -105.43 0 -2.34 69.72c-1.18,32.81 -3.85,59.45 -8.02,79.87 -4.2,20.39 -10.83,35.75 -19.91,46.08 -9.04,10.31 -21.26,15.46 -36.7,15.46 -7.07,0 -14.2,-0.89 -21.45,-2.73l2.4 -30.24c3.62,0.91 7.27,1.36 10.89,1.36 9.76,0 17.55,-3.91 23.46,-11.73 5.89,-7.8 10.26,-19.58 13.22,-35.2 3,-15.62 4.91,-36.26 5.82,-61.9l3.73 -100.27 167.61 0zm402.2 0l-105.76 196.19c-8.38,15.62 -18.26,27.29 -29.55,34.97 -11.38,7.76 -23.68,11.62 -37.07,11.62 -10.42,0 -21.08,-2.4 -31.97,-7.13l8.83 -27.22c8.42,2.93 15.88,4.43 22.44,4.43 14.97,0 27.31,-7.96 37.11,-23.8l5.45 -8.51 -95.9 -180.55 36.37 0 77.19 150.95 79.24 -150.95 33.64 0zm349.49 0l0 237.98 -33.64 0 0 -94.17c-25.2,9.76 -48.39,14.62 -69.72,14.62 -29.02,0 -51.54,-7.02 -67.48,-21.09 -15.97,-14.03 -24,-34.13 -24,-60.19l0 -77.16 33.31 0 0 73.45c0,17.66 5.4,31.26 16.17,40.76 10.75,9.54 26.02,14.27 45.73,14.27 21.97,0 43.99,-4.98 65.98,-14.93l0 -113.56 33.64 0zm207.34 0l33.69 0 0 183.59 140.73 -183.59 31.31 0 0 237.98 -33.31 0 0 -183.24 -141.13 183.24 -31.29 0 0 -237.98zm576.59 29.57l-81.59 0 0 208.41 -33.33 0 0 -208.41 -81.28 0 0 -29.57 196.19 0 0 29.57zm277.73 211.14c-23.82,0 -45.3,-5.28 -64.38,-15.8 -19.18,-10.57 -34.18,-25.08 -45.06,-43.5 -10.87,-18.51 -16.34,-39.33 -16.34,-62.43 0,-23.13 5.47,-43.88 16.34,-62.39 10.88,-18.46 25.95,-32.97 45.19,-43.52 19.31,-10.53 40.81,-15.77 64.64,-15.77 18.55,0 35.59,3.11 50.96,9.33 15.42,6.24 28.58,15.44 39.47,27.7l-22.08 21.42c-17.95,-18.8 -40.27,-28.2 -67.01,-28.2 -17.68,0 -33.69,3.94 -47.95,11.87 -14.26,7.98 -25.42,18.88 -33.48,32.84 -8.04,13.9 -12.09,29.51 -12.09,46.72 0,17.26 4.05,32.81 12.09,46.75 8.07,13.95 19.22,24.9 33.48,32.79 14.26,8 30.27,11.91 47.95,11.91 26.5,0 48.88,-9.49 67.01,-28.5l22.08 21.37c-10.89,12.26 -24.08,21.53 -39.64,27.86 -15.51,6.38 -32.55,9.55 -51.17,9.55zm439.59 -240.71l0 237.98 -33.3 0 0 -69.35 -65.66 0c-4.04,0 -7.14,-0.13 -9.18,-0.31l-47.57 69.66 -36.08 0 52.73 -75.48c-17,-5.69 -30.06,-15.11 -39.11,-28.37 -9.09,-13.29 -13.62,-29.42 -13.62,-48.44 0,-26.99 8.69,-48.03 26.02,-63.12 17.35,-15.05 40.79,-22.57 70.23,-22.57l95.54 0zm-157.42 85.34c0,17.64 5.14,31.19 15.46,40.61 10.33,9.4 25.53,14.11 45.75,14.11l62.91 0 0 -110.49 -60.86 0c-20.42,0 -36.04,4.75 -46.9,14.29 -10.89,9.51 -16.35,23.33 -16.35,41.48zm354.27 -85.34l38.44 0 -6.47 162.86 -25.88 0 -6.09 -162.86zm19.37 240.07c-6.39,0 -11.68,-2.11 -15.99,-6.3 -4.29,-4.2 -6.44,-9.36 -6.44,-15.49 0,-6.13 2.16,-11.24 6.44,-15.49 4.31,-4.18 9.6,-6.25 15.99,-6.25 6.34,0 11.56,2.07 15.6,6.25 4.13,4.25 6.17,9.36 6.17,15.49 0,6.13 -2.16,11.28 -6.3,15.49 -4.18,4.2 -9.33,6.3 -15.47,6.3z"/>
  </g>
 </g>
</svg>
